<svg id="Calque_1" data-name="Calque 1" xmlns="http://www.w3.org/2000/svg" xmlns:xlink="http://www.w3.org/1999/xlink" viewBox="0 0 16.22 16.22"><defs><style>.cls-1{stroke:#242d5b;stroke-miterlimit:10;fill:url(#Dégradé_sans_nom_322);}.cls-2{fill:#981915;}</style><linearGradient id="Dégradé_sans_nom_322" x1="8.64" y1="0.52" x2="7.58" y2="15.7" gradientUnits="userSpaceOnUse"><stop offset="0" stop-color="#b9d7ff"/><stop offset="0.07" stop-color="#a1c6ff"/><stop offset="0.17" stop-color="#81adff"/><stop offset="0.28" stop-color="#679aff"/><stop offset="0.4" stop-color="#548dff"/><stop offset="0.52" stop-color="#4a85ff"/><stop offset="0.65" stop-color="#4682ff"/></linearGradient></defs><circle class="cls-1" cx="8.11" cy="8.11" r="7.61"/><path d="M722.63,383.58l-.43-.79H722v.79h-.47v-2h.75a1.27,1.27,0,0,1,.28,0,.64.64,0,0,1,.24.1.52.52,0,0,1,.17.19.62.62,0,0,1,.07.29.55.55,0,0,1-.11.34.64.64,0,0,1-.3.2l.51.85Zm0-1.38a.21.21,0,0,0,0-.12.27.27,0,0,0-.08-.07l-.1,0H722v.47h.35l.11,0a.18.18,0,0,0,.08-.07A.16.16,0,0,0,722.61,382.2Z" transform="translate(-716.12 -374.89)"/><path d="M723.47,383.58v-2h1.32V382h-.86v.38h.82v.38h-.82v.42h.91v.41Z" transform="translate(-716.12 -374.89)"/><path d="M726.25,382.1a.4.4,0,0,0-.16-.12.45.45,0,0,0-.19-.05h-.09a.16.16,0,0,0-.09,0l-.07.06a.3.3,0,0,0,0,.1.29.29,0,0,0,0,.09.1.1,0,0,0,.06,0l.1.05.12,0,.21.08a.78.78,0,0,1,.2.11.39.39,0,0,1,.14.17.46.46,0,0,1,.06.25.73.73,0,0,1-.06.3.55.55,0,0,1-.17.2.55.55,0,0,1-.24.12.86.86,0,0,1-.28,0,1.14,1.14,0,0,1-.41-.07.93.93,0,0,1-.33-.21l.31-.33a.7.7,0,0,0,.19.15.44.44,0,0,0,.24.07l.1,0a.19.19,0,0,0,.09,0,.13.13,0,0,0,.06-.07.3.3,0,0,0,0-.1.17.17,0,0,0,0-.1.23.23,0,0,0-.07-.07l-.13-.06-.18-.06-.18-.07a.64.64,0,0,1-.16-.11.48.48,0,0,1-.12-.16.53.53,0,0,1,0-.23.54.54,0,0,1,.07-.29.52.52,0,0,1,.17-.19.71.71,0,0,1,.25-.11.84.84,0,0,1,.27,0,1,1,0,0,1,.34.06.89.89,0,0,1,.31.19Z" transform="translate(-716.12 -374.89)"/><path class="cls-2" d="M729.05,387.11h-5a4.71,4.71,0,0,1-1.79-.32,4.14,4.14,0,0,1-1.4-.89,4,4,0,0,1-.92-1.4,4.9,4.9,0,0,1-.33-1.84,4.62,4.62,0,0,1,.34-1.8,4.09,4.09,0,0,1,.93-1.4,4,4,0,0,1,1.41-.92,4.91,4.91,0,0,1,3.54,0,4.16,4.16,0,0,1,1.4.92,4.21,4.21,0,0,1,.92,1.4,4.8,4.8,0,0,1,.33,1.8,4.16,4.16,0,0,1-.48,2,3.75,3.75,0,0,1-1.28,1.37v0h2.36Zm-8.18-4.45a3.87,3.87,0,0,0,.23,1.33,3.26,3.26,0,0,0,.63,1.07,2.75,2.75,0,0,0,1,.72,3.24,3.24,0,0,0,2.59,0,2.88,2.88,0,0,0,1-.72A3.46,3.46,0,0,0,727,384a3.87,3.87,0,0,0,.22-1.33,4,4,0,0,0-.21-1.31,3.41,3.41,0,0,0-.63-1.08,3,3,0,0,0-2.29-1,3.07,3.07,0,0,0-1.31.27,3.15,3.15,0,0,0-1,.73,3.26,3.26,0,0,0-.64,1.08A3.76,3.76,0,0,0,720.87,382.66Z" transform="translate(-716.12 -374.89)"/></svg>